<svg width="391" height="512" viewBox="0 0 391 512" fill="none" xmlns="http://www.w3.org/2000/svg">
<path d="M390.839 60.9911V480.682C390.839 497.948 376.713 512 359.521 512H31.318C30.047 512 28.851 511.925 27.581 511.776C13.379 510.057 1.944 498.696 0.224 484.42C0.075 483.149 0 481.953 0 480.682V60.9911C0 44.8461 12.407 44.5481 28.179 44.5481H362.661C378.432 44.5481 390.839 44.8471 390.839 60.9911Z" fill="#5D5E5E"/>
<path d="M390.839 31.318V436.209C390.839 453.4 376.713 467.452 359.521 467.452H31.318C14.127 467.452 0 453.4 0 436.209V31.318C0 14.127 14.127 0 31.318 0H359.521C360.866 0 362.212 0.075 363.557 0.299C377.534 2.093 388.746 13.304 390.54 27.282C390.764 28.627 390.839 29.973 390.839 31.318Z" fill="#787878"/>
<path d="M195.42 359.268C109.504 359.268 39.6071 289.372 39.6071 203.455C39.6071 117.54 109.503 47.6421 195.42 47.6421C281.337 47.6421 351.233 117.54 351.233 203.455C351.232 289.372 281.336 359.268 195.42 359.268Z" fill="#5D5E5E"/>
<path d="M195.42 340.719C271.229 340.719 332.684 279.264 332.684 203.455C332.684 127.646 271.229 66.1909 195.42 66.1909C119.611 66.1909 58.156 127.646 58.156 203.455C58.156 279.264 119.611 340.719 195.42 340.719Z" fill="#F6F5F5"/>
<path d="M195.42 266.522C160.644 266.522 132.353 238.231 132.353 203.455C132.353 168.679 160.644 140.388 195.42 140.388C230.196 140.388 258.487 168.679 258.487 203.455C258.487 238.231 230.196 266.522 195.42 266.522Z" fill="#CCCCCC"/>
<g opacity="0.2">
<path d="M189.853 247.999C189.853 244.86 192.313 242.393 195.459 242.393C195.605 242.393 195.751 242.393 195.831 242.393C198.897 242.393 201.437 244.86 201.51 247.926C201.51 250.992 199.043 253.459 195.977 253.532C195.904 253.532 195.751 253.532 195.678 253.532C195.605 253.532 195.532 253.532 195.459 253.532C192.313 253.531 189.853 251.064 189.853 247.999ZM163.313 241.874C160.926 239.852 160.627 236.341 162.568 234.02C164.583 231.633 168.101 231.334 170.415 233.349C172.809 235.298 173.108 238.809 171.087 241.123C170.043 242.473 168.474 243.145 166.831 243.145C165.634 243.145 164.364 242.692 163.313 241.874ZM220.123 240.823C218.101 238.509 218.4 234.998 220.721 233.049C223.035 231.034 226.546 231.261 228.568 233.648C230.583 235.969 230.283 239.48 227.97 241.495C226.926 242.393 225.649 242.845 224.379 242.845C222.809 242.845 221.24 242.174 220.123 240.823ZM146.123 212.276C145.524 209.21 147.619 206.371 150.612 205.845C153.597 205.246 156.51 207.268 157.035 210.327C157.633 213.32 155.619 216.232 152.553 216.758C152.254 216.831 151.881 216.831 151.582 216.831C148.963 216.831 146.576 214.962 146.123 212.276ZM238.437 216.232C235.371 215.787 233.349 212.874 233.875 209.882C234.32 206.816 237.24 204.802 240.225 205.32C243.291 205.773 245.313 208.685 244.787 211.678C244.335 214.444 242.021 216.386 239.327 216.386C239.028 216.385 238.729 216.313 238.437 216.232ZM154.05 186.188C151.357 184.619 150.386 181.254 151.955 178.56C153.451 175.874 156.889 174.976 159.575 176.545C162.195 178.041 163.166 181.479 161.597 184.092C160.546 185.888 158.677 186.931 156.736 186.931C155.839 186.933 154.868 186.714 154.05 186.188ZM229.014 183.721C227.445 181.108 228.343 177.663 230.963 176.093C233.576 174.524 237.014 175.421 238.583 178.115C240.152 180.728 239.255 184.166 236.641 185.735C235.743 186.26 234.772 186.487 233.802 186.487C231.853 186.488 230.065 185.517 229.014 183.721ZM174.751 163.612C173.707 160.773 175.123 157.561 178.043 156.437C178.043 156.437 178.043 156.437 178.043 156.517C180.882 155.393 184.094 156.889 185.218 159.729C186.262 162.641 184.765 165.86 181.926 166.904C181.254 167.13 180.583 167.276 179.984 167.276C177.744 167.276 175.576 165.86 174.751 163.612ZM208.459 166.751H208.539C205.619 165.707 204.123 162.568 205.094 159.656C206.145 156.736 209.357 155.24 212.276 156.291C215.115 157.335 216.604 160.473 215.634 163.393C214.816 165.634 212.649 167.05 210.327 167.05C209.729 167.05 209.13 166.977 208.459 166.751Z" fill="#787878"/>
</g>
<path d="M195.42 229.424C181.102 229.424 169.451 217.775 169.451 203.455C169.451 189.135 181.102 177.486 195.42 177.486C209.738 177.486 221.389 189.135 221.389 203.455C221.389 217.775 209.737 229.424 195.42 229.424Z" fill="#F6F5F5"/>
<path d="M38.37 50.116C45.0289 50.116 50.427 44.7178 50.427 38.059C50.427 31.4001 45.0289 26.002 38.37 26.002C31.7111 26.002 26.313 31.4001 26.313 38.059C26.313 44.7178 31.7111 50.116 38.37 50.116Z" fill="#5D5E5E"/>
<path d="M352.469 50.116C359.128 50.116 364.526 44.7178 364.526 38.059C364.526 31.4001 359.128 26.002 352.469 26.002C345.81 26.002 340.412 31.4001 340.412 38.059C340.412 44.7178 345.81 50.116 352.469 50.116Z" fill="#5D5E5E"/>
<path d="M38.37 433.465C45.0289 433.465 50.427 428.067 50.427 421.408C50.427 414.749 45.0289 409.351 38.37 409.351C31.7111 409.351 26.313 414.749 26.313 421.408C26.313 428.067 31.7111 433.465 38.37 433.465Z" fill="#5D5E5E"/>
<path d="M352.469 433.465C359.128 433.465 364.526 428.067 364.526 421.408C364.526 414.749 359.128 409.351 352.469 409.351C345.81 409.351 340.412 414.749 340.412 421.408C340.412 428.067 345.81 433.465 352.469 433.465Z" fill="#5D5E5E"/>
<path d="M186.956 467.471H48.147V484.474H186.956V467.471Z" fill="#717373"/>
<path opacity="0.3" d="M284.339 484.474H257.443V502.096H284.339V484.474Z" fill="#FDEED2"/>
<path opacity="0.3" d="M350.189 484.474H292.687V502.096H350.189V484.474Z" fill="#FDEED2"/>
<path opacity="0.1" d="M320.511 373.072H186.957V441.704H320.511V373.072Z" fill="#DCECCC"/>
<path d="M103.28 181.625L79.491 397.617C79.491 410.756 90.142 421.407 103.28 421.407C116.421 421.407 127.072 410.756 127.072 397.617L103.28 181.625Z" fill="#E95D7A"/>
<path d="M103.282 407.387C108.811 407.387 113.293 402.905 113.293 397.376C113.293 391.847 108.811 387.365 103.282 387.365C97.7531 387.365 93.271 391.847 93.271 397.376C93.271 402.905 97.7531 407.387 103.282 407.387Z" fill="#6F6E6E"/>
<path opacity="0.08" d="M0 451.419V480.682C0 481.953 0.075 483.149 0.224 484.419C1.943 498.695 13.379 510.056 27.581 511.775C28.852 511.925 30.048 511.999 31.318 511.999H359.521C376.713 511.999 390.839 497.947 390.839 480.681V436.208V60.9911V60.5801L0 451.419Z" fill="#040000"/>
</svg>
