<svg width="21" height="21" viewBox="0 0 21 21" fill="none" xmlns="http://www.w3.org/2000/svg">
<path d="M10.6406 14.3125L4.21875 15.8594V4.14062L10.6406 5.64062V14.3125Z" fill="#E05243"/>
<path d="M10.4531 14.3594L16.6875 15.8594V4.14062L10.4531 5.64062V14.3594Z" fill="#8C3123"/>
<path d="M10.4531 1V5.54688L13.1719 6.20312V2.35938L10.4531 1ZM16.6875 4.14062V15.8594L17.9062 15.25V4.70312L16.6875 4.14062ZM10.4531 7.75V12.2969L13.1719 11.9219V8.07812L10.4531 7.75ZM13.1719 13.7969L10.4531 14.4531V19L13.1719 17.6406V13.7969Z" fill="#E05243"/>
<path d="M10.4531 19V14.4531L7.73438 13.7969V17.6406L10.4531 19ZM4.21875 15.8594L4.21875 4.14062L3 4.75L3 15.2969L4.21875 15.8594ZM10.4531 12.25L10.4531 7.70312L7.73437 8.07812L7.73437 11.9219L10.4531 12.25ZM7.73437 6.20312L10.4531 5.54688V1L7.73437 2.35938V6.20312Z" fill="#8C3123"/>
<path d="M13.1719 6.20312L10.4531 6.71875L7.73438 6.20312L10.4531 5.5L13.1719 6.20312Z" fill="#5E1F18"/>
<path d="M13.1719 13.7969L10.4531 13.2812L7.73438 13.7969L10.4531 14.5469L13.1719 13.7969Z" fill="#F2B0A9"/>
</svg>
