<svg width="570" height="91" viewBox="0 0 570 91" fill="none" xmlns="http://www.w3.org/2000/svg">
<rect width="570" height="91" fill="white"/>
<rect x="352" y="4" width="10" height="10" rx="2" fill="#00C951"/>
<rect x="364" y="4" width="10" height="10" rx="2" fill="#00C951"/>
<rect x="376" y="4" width="10" height="10" rx="2" fill="#00C951"/>
<rect x="388" y="4" width="10" height="10" rx="2" fill="#00C951"/>
<rect x="400" y="4" width="10" height="10" rx="2" fill="#00C951"/>
<rect x="412" y="4" width="10" height="10" rx="2" fill="#00C951"/>
<rect x="340" y="4" width="10" height="10" rx="2" fill="#00C951"/>
<rect x="328" y="4" width="10" height="10" rx="2" fill="#00C951"/>
<rect x="316" y="4" width="10" height="10" rx="2" fill="#00C951"/>
<rect x="304" y="4" width="10" height="10" rx="2" fill="#00C951"/>
<rect x="292" y="4" width="10" height="10" rx="2" fill="#00C951"/>
<rect x="280" y="4" width="10" height="10" rx="2" fill="#00C951"/>
<rect x="268" y="4" width="10" height="10" rx="2" fill="#00C951"/>
<rect x="256" y="4" width="10" height="10" rx="2" fill="#00C951"/>
<rect x="244" y="4" width="10" height="10" rx="2" fill="#00C951"/>
<rect x="232" y="4" width="10" height="10" rx="2" fill="#00C951"/>
<rect x="220" y="4" width="10" height="10" rx="2" fill="#00C951"/>
<rect x="208" y="4" width="10" height="10" rx="2" fill="#00C951"/>
<rect x="196" y="4" width="10" height="10" rx="2" fill="#00C951"/>
<rect x="184" y="4" width="10" height="10" rx="2" fill="#00C951"/>
<rect x="172" y="4" width="10" height="10" rx="2" fill="#00C951"/>
<rect x="160" y="4" width="10" height="10" rx="2" fill="#00C951"/>
<rect x="148" y="4" width="10" height="10" rx="2" fill="#00C951"/>
<rect x="136" y="4" width="10" height="10" rx="2" fill="#00C951"/>
<rect x="124" y="4" width="10" height="10" rx="2" fill="#00C951"/>
<rect x="112" y="4" width="10" height="10" rx="2" fill="#00C951"/>
<rect x="100" y="4" width="10" height="10" rx="2" fill="#00C951"/>
<rect x="88" y="4" width="10" height="10" rx="2" fill="#00C951"/>
<rect x="76" y="4" width="10" height="10" rx="2" fill="#00C951"/>
<rect x="64" y="4" width="10" height="10" rx="2" fill="#00C951"/>
<rect x="52" y="4" width="10" height="10" rx="2" fill="#00C951"/>
<rect x="40" y="4" width="10" height="10" rx="2" fill="#00C951"/>
<rect x="28" y="4" width="10" height="10" rx="2" fill="#00C951"/>
<rect x="16" y="4" width="10" height="10" rx="2" fill="#00C951"/>
<rect x="4" y="4" width="10" height="10" rx="2" fill="#00C951"/>
<rect x="424" y="4" width="10" height="10" rx="2" fill="#00C951"/>
<rect x="436" y="4" width="10" height="10" rx="2" fill="#00C951"/>
<rect x="448" y="4" width="10" height="10" rx="2" fill="#00C951"/>
<rect x="460" y="4" width="10" height="10" rx="2" fill="#00C951"/>
<rect x="472" y="4" width="10" height="10" rx="2" fill="#00C951"/>
<rect x="484" y="4" width="10" height="10" rx="2" fill="#00C951"/>
<rect x="496" y="4" width="10" height="10" rx="2" fill="#00C951"/>
<rect x="508" y="4" width="10" height="10" rx="2" fill="#00C951"/>
<rect x="520" y="4" width="10" height="10" rx="2" fill="#00C951"/>
<rect x="532" y="4" width="10" height="10" rx="2" fill="#00C951"/>
<rect x="544" y="4" width="10" height="10" rx="2" fill="#00C951"/>
<rect x="556" y="4" width="10" height="10" rx="2" fill="#00C951"/>
<rect x="352" y="16" width="10" height="10" rx="2" fill="#00C951"/>
<rect x="364" y="16" width="10" height="10" rx="2" fill="#00C951"/>
<rect x="376" y="16" width="10" height="10" rx="2" fill="#00C951"/>
<rect x="388" y="16" width="10" height="10" rx="2" fill="#00C951"/>
<rect x="400" y="16" width="10" height="10" rx="2" fill="#00C951"/>
<rect x="412" y="16" width="10" height="10" rx="2" fill="#00C951"/>
<rect x="340" y="16" width="10" height="10" rx="2" fill="#00C951"/>
<rect x="328" y="16" width="10" height="10" rx="2" fill="#00C951"/>
<rect x="316" y="16" width="10" height="10" rx="2" fill="#00C951"/>
<rect x="304" y="16" width="10" height="10" rx="2" fill="#00C951"/>
<rect x="292" y="16" width="10" height="10" rx="2" fill="#00C951"/>
<rect x="280" y="16" width="10" height="10" rx="2" fill="#00C951"/>
<rect x="268" y="16" width="10" height="10" rx="2" fill="#00C951"/>
<rect x="256" y="16" width="10" height="10" rx="2" fill="#00C951"/>
<rect x="244" y="16" width="10" height="10" rx="2" fill="#00C951"/>
<rect x="232" y="16" width="10" height="10" rx="2" fill="#00C951"/>
<rect x="220" y="16" width="10" height="10" rx="2" fill="#00C951"/>
<rect x="208" y="16" width="10" height="10" rx="2" fill="#00C951"/>
<rect x="196" y="16" width="10" height="10" rx="2" fill="#00C951"/>
<rect x="184" y="16" width="10" height="10" rx="2" fill="#00C951"/>
<rect x="172" y="16" width="10" height="10" rx="2" fill="#00C951"/>
<rect x="160" y="16" width="10" height="10" rx="2" fill="#00C951"/>
<rect x="148" y="16" width="10" height="10" rx="2" fill="#00C951"/>
<rect x="136" y="16" width="10" height="10" rx="2" fill="#00C951"/>
<rect x="124" y="16" width="10" height="10" rx="2" fill="#00C951"/>
<rect x="112" y="16" width="10" height="10" rx="2" fill="#00C951"/>
<rect x="100" y="16" width="10" height="10" rx="2" fill="#00C951"/>
<rect x="88" y="16" width="10" height="10" rx="2" fill="#00C951"/>
<rect x="76" y="16" width="10" height="10" rx="2" fill="#00C951"/>
<rect x="64" y="16" width="10" height="10" rx="2" fill="#00C951"/>
<rect x="52" y="16" width="10" height="10" rx="2" fill="#00C951"/>
<rect x="40" y="16" width="10" height="10" rx="2" fill="#00C951"/>
<rect x="28" y="16" width="10" height="10" rx="2" fill="#00C951"/>
<rect x="16" y="16" width="10" height="10" rx="2" fill="#00C951"/>
<rect x="4" y="16" width="10" height="10" rx="2" fill="#00C951"/>
<rect x="424" y="16" width="10" height="10" rx="2" fill="#00C951"/>
<rect x="436" y="16" width="10" height="10" rx="2" fill="#00C951"/>
<rect x="448" y="16" width="10" height="10" rx="2" fill="#00C951"/>
<rect x="460" y="16" width="10" height="10" rx="2" fill="#00C951"/>
<rect x="472" y="16" width="10" height="10" rx="2" fill="#00C951"/>
<rect x="484" y="16" width="10" height="10" rx="2" fill="#00C951"/>
<rect x="496" y="16" width="10" height="10" rx="2" fill="#00C951"/>
<rect x="508" y="16" width="10" height="10" rx="2" fill="#00C951"/>
<rect x="520" y="16" width="10" height="10" rx="2" fill="#00C951"/>
<rect x="532" y="16" width="10" height="10" rx="2" fill="#00C951"/>
<rect x="544" y="16" width="10" height="10" rx="2" fill="#00C951"/>
<rect x="556" y="16" width="10" height="10" rx="2" fill="#00C951"/>
<rect x="352" y="28" width="10" height="10" rx="2" fill="#FB2C36"/>
<rect x="364" y="28" width="10" height="10" rx="2" fill="#FB2C36"/>
<rect x="376" y="28" width="10" height="10" rx="2" fill="#FB2C36"/>
<rect x="388" y="28" width="10" height="10" rx="2" fill="#FB2C36"/>
<rect x="400" y="28" width="10" height="10" rx="2" fill="#FB2C36"/>
<rect x="412" y="28" width="10" height="10" rx="2" fill="#00C951"/>
<rect x="340" y="28" width="10" height="10" rx="2" fill="#00C951"/>
<rect x="328" y="28" width="10" height="10" rx="2" fill="#00C951"/>
<rect x="316" y="28" width="10" height="10" rx="2" fill="#00C951"/>
<rect x="304" y="28" width="10" height="10" rx="2" fill="#00C951"/>
<rect x="292" y="28" width="10" height="10" rx="2" fill="#00C951"/>
<rect x="280" y="28" width="10" height="10" rx="2" fill="#00C951"/>
<rect x="268" y="28" width="10" height="10" rx="2" fill="#00C951"/>
<rect x="256" y="28" width="10" height="10" rx="2" fill="#00C951"/>
<rect x="244" y="28" width="10" height="10" rx="2" fill="#00C951"/>
<rect x="232" y="28" width="10" height="10" rx="2" fill="#00C951"/>
<rect x="220" y="28" width="10" height="10" rx="2" fill="#00C951"/>
<rect x="208" y="28" width="10" height="10" rx="2" fill="#00C951"/>
<rect x="196" y="28" width="10" height="10" rx="2" fill="#00C951"/>
<rect x="184" y="28" width="10" height="10" rx="2" fill="#00C951"/>
<rect x="172" y="28" width="10" height="10" rx="2" fill="#00C951"/>
<rect x="160" y="28" width="10" height="10" rx="2" fill="#00C951"/>
<rect x="148" y="28" width="10" height="10" rx="2" fill="#00C951"/>
<rect x="136" y="28" width="10" height="10" rx="2" fill="#00C951"/>
<rect x="124" y="28" width="10" height="10" rx="2" fill="#00C951"/>
<rect x="112" y="28" width="10" height="10" rx="2" fill="#00C951"/>
<rect x="100" y="28" width="10" height="10" rx="2" fill="#00C951"/>
<rect x="88" y="28" width="10" height="10" rx="2" fill="#00C951"/>
<rect x="76" y="28" width="10" height="10" rx="2" fill="#00C951"/>
<rect x="64" y="28" width="10" height="10" rx="2" fill="#00C951"/>
<rect x="52" y="28" width="10" height="10" rx="2" fill="#00C951"/>
<rect x="40" y="28" width="10" height="10" rx="2" fill="#00C951"/>
<rect x="28" y="28" width="10" height="10" rx="2" fill="#00C951"/>
<rect x="16" y="28" width="10" height="10" rx="2" fill="#00C951"/>
<rect x="4" y="28" width="10" height="10" rx="2" fill="#00C951"/>
<rect x="424" y="28" width="10" height="10" rx="2" fill="#00C951"/>
<rect x="436" y="28" width="10" height="10" rx="2" fill="#00C951"/>
<rect x="448" y="28" width="10" height="10" rx="2" fill="#00C951"/>
<rect x="460" y="28" width="10" height="10" rx="2" fill="#00C951"/>
<rect x="472" y="28" width="10" height="10" rx="2" fill="#00C951"/>
<rect x="484" y="28" width="10" height="10" rx="2" fill="#00C951"/>
<rect x="496" y="28" width="10" height="10" rx="2" fill="#00C951"/>
<rect x="508" y="28" width="10" height="10" rx="2" fill="#00C951"/>
<rect x="520" y="28" width="10" height="10" rx="2" fill="#00C951"/>
<rect x="532" y="28" width="10" height="10" rx="2" fill="#00C951"/>
<rect x="544" y="28" width="10" height="10" rx="2" fill="#00C951"/>
<rect x="556" y="28" width="10" height="10" rx="2" fill="#00C951"/>
<rect x="352" y="40" width="10" height="10" rx="2" fill="#00C951"/>
<rect x="364" y="40" width="10" height="10" rx="2" fill="#00C951"/>
<rect x="376" y="40" width="10" height="10" rx="2" fill="#00C951"/>
<rect x="388" y="40" width="10" height="10" rx="2" fill="#00C951"/>
<rect x="400" y="40" width="10" height="10" rx="2" fill="#00C951"/>
<rect x="412" y="40" width="10" height="10" rx="2" fill="#00C951"/>
<rect x="340" y="40" width="10" height="10" rx="2" fill="#00C951"/>
<rect x="328" y="40" width="10" height="10" rx="2" fill="#00C951"/>
<rect x="316" y="40" width="10" height="10" rx="2" fill="#00C951"/>
<rect x="304" y="40" width="10" height="10" rx="2" fill="#00C951"/>
<rect x="292" y="40" width="10" height="10" rx="2" fill="#00C951"/>
<rect x="280" y="40" width="10" height="10" rx="2" fill="#00C951"/>
<rect x="268" y="40" width="10" height="10" rx="2" fill="#00C951"/>
<rect x="256" y="40" width="10" height="10" rx="2" fill="#00C951"/>
<rect x="244" y="40" width="10" height="10" rx="2" fill="#00C951"/>
<rect x="232" y="40" width="10" height="10" rx="2" fill="#00C951"/>
<rect x="220" y="40" width="10" height="10" rx="2" fill="#00C951"/>
<rect x="208" y="40" width="10" height="10" rx="2" fill="#00C951"/>
<rect x="196" y="40" width="10" height="10" rx="2" fill="#00C951"/>
<rect x="184" y="40" width="10" height="10" rx="2" fill="#00C951"/>
<rect x="172" y="40" width="10" height="10" rx="2" fill="#00C951"/>
<rect x="160" y="40" width="10" height="10" rx="2" fill="#00C951"/>
<rect x="148" y="40" width="10" height="10" rx="2" fill="#00C951"/>
<rect x="136" y="40" width="10" height="10" rx="2" fill="#00C951"/>
<rect x="124" y="40" width="10" height="10" rx="2" fill="#00C951"/>
<rect x="112" y="40" width="10" height="10" rx="2" fill="#00C951"/>
<rect x="100" y="40" width="10" height="10" rx="2" fill="#00C951"/>
<rect x="88" y="40" width="10" height="10" rx="2" fill="#00C951"/>
<rect x="76" y="40" width="10" height="10" rx="2" fill="#00C951"/>
<rect x="64" y="40" width="10" height="10" rx="2" fill="#00C951"/>
<rect x="52" y="40" width="10" height="10" rx="2" fill="#00C951"/>
<rect x="40" y="40" width="10" height="10" rx="2" fill="#00C951"/>
<rect x="28" y="40" width="10" height="10" rx="2" fill="#00C951"/>
<rect x="16" y="40" width="10" height="10" rx="2" fill="#00C951"/>
<rect x="4" y="40" width="10" height="10" rx="2" fill="#00C951"/>
<rect x="424" y="40" width="10" height="10" rx="2" fill="#00C951"/>
<rect x="436" y="40" width="10" height="10" rx="2" fill="#00C951"/>
<rect x="448" y="40" width="10" height="10" rx="2" fill="#00C951"/>
<rect x="460" y="40" width="10" height="10" rx="2" fill="#00C951"/>
<rect x="472" y="40" width="10" height="10" rx="2" fill="#00C951"/>
<rect x="484" y="40" width="10" height="10" rx="2" fill="#00C951"/>
<rect x="496" y="40" width="10" height="10" rx="2" fill="#00C951"/>
<rect x="508" y="40" width="10" height="10" rx="2" fill="#00C951"/>
<rect x="520" y="40" width="10" height="10" rx="2" fill="#00C951"/>
<rect x="532" y="40" width="10" height="10" rx="2" fill="#00C951"/>
<rect x="544" y="40" width="10" height="10" rx="2" fill="#00C951"/>
<rect x="556" y="40" width="10" height="10" rx="2" fill="#00C951"/>
<rect x="352" y="52" width="10" height="10" rx="2" fill="#00C951"/>
<rect x="364" y="52" width="10" height="10" rx="2" fill="#00C951"/>
<rect x="376" y="52" width="10" height="10" rx="2" fill="#00C951"/>
<rect x="388" y="52" width="10" height="10" rx="2" fill="#00C951"/>
<rect x="400" y="52" width="10" height="10" rx="2" fill="#00C951"/>
<rect x="412" y="52" width="10" height="10" rx="2" fill="#00C951"/>
<rect x="340" y="52" width="10" height="10" rx="2" fill="#00C951"/>
<rect x="328" y="52" width="10" height="10" rx="2" fill="#00C951"/>
<rect x="316" y="52" width="10" height="10" rx="2" fill="#00C951"/>
<rect x="304" y="52" width="10" height="10" rx="2" fill="#00C951"/>
<rect x="292" y="52" width="10" height="10" rx="2" fill="#00C951"/>
<rect x="280" y="52" width="10" height="10" rx="2" fill="#00C951"/>
<rect x="268" y="52" width="10" height="10" rx="2" fill="#00C951"/>
<rect x="256" y="52" width="10" height="10" rx="2" fill="#00C951"/>
<rect x="244" y="52" width="10" height="10" rx="2" fill="#00C951"/>
<rect x="232" y="52" width="10" height="10" rx="2" fill="#00C951"/>
<rect x="220" y="52" width="10" height="10" rx="2" fill="#00C951"/>
<rect x="208" y="52" width="10" height="10" rx="2" fill="#00C951"/>
<rect x="196" y="52" width="10" height="10" rx="2" fill="#00C951"/>
<rect x="184" y="52" width="10" height="10" rx="2" fill="#00C951"/>
<rect x="172" y="52" width="10" height="10" rx="2" fill="#00C951"/>
<rect x="160" y="52" width="10" height="10" rx="2" fill="#00C951"/>
<rect x="148" y="52" width="10" height="10" rx="2" fill="#00C951"/>
<rect x="136" y="52" width="10" height="10" rx="2" fill="#00C951"/>
<rect x="124" y="52" width="10" height="10" rx="2" fill="#00C951"/>
<rect x="112" y="52" width="10" height="10" rx="2" fill="#00C951"/>
<rect x="100" y="52" width="10" height="10" rx="2" fill="#00C951"/>
<rect x="88" y="52" width="10" height="10" rx="2" fill="#00C951"/>
<rect x="76" y="52" width="10" height="10" rx="2" fill="#00C951"/>
<rect x="64" y="52" width="10" height="10" rx="2" fill="#00C951"/>
<rect x="52" y="52" width="10" height="10" rx="2" fill="#00C951"/>
<rect x="40" y="52" width="10" height="10" rx="2" fill="#00C951"/>
<rect x="28" y="52" width="10" height="10" rx="2" fill="#00C951"/>
<rect x="16" y="52" width="10" height="10" rx="2" fill="#00C951"/>
<rect x="4" y="52" width="10" height="10" rx="2" fill="#00C951"/>
<rect x="424" y="52" width="10" height="10" rx="2" fill="#00C951"/>
<rect x="436" y="52" width="10" height="10" rx="2" fill="#00C951"/>
<rect x="448" y="52" width="10" height="10" rx="2" fill="#00C951"/>
<rect x="460" y="52" width="10" height="10" rx="2" fill="#00C951"/>
<rect x="472" y="52" width="10" height="10" rx="2" fill="#00C951"/>
<rect x="484" y="52" width="10" height="10" rx="2" fill="#00C951"/>
<rect x="496" y="52" width="10" height="10" rx="2" fill="#00C951"/>
<rect x="508" y="52" width="10" height="10" rx="2" fill="#00C951"/>
<rect x="520" y="52" width="10" height="10" rx="2" fill="#00C951"/>
<rect x="532" y="52" width="10" height="10" rx="2" fill="#00C951"/>
<rect x="544" y="52" width="10" height="10" rx="2" fill="#00C951"/>
<rect x="556" y="52" width="10" height="10" rx="2" fill="#00C951"/>
<rect x="352" y="64" width="10" height="10" rx="2" fill="#00C951"/>
<rect x="364" y="64" width="10" height="10" rx="2" fill="#00C951"/>
<rect x="376" y="64" width="10" height="10" rx="2" fill="#00C951"/>
<rect x="388" y="64" width="10" height="10" rx="2" fill="#00C951"/>
<rect x="400" y="64" width="10" height="10" rx="2" fill="#00C951"/>
<rect x="412" y="64" width="10" height="10" rx="2" fill="#00C951"/>
<rect x="340" y="64" width="10" height="10" rx="2" fill="#00C951"/>
<rect x="328" y="64" width="10" height="10" rx="2" fill="#00C951"/>
<rect x="316" y="64" width="10" height="10" rx="2" fill="#00C951"/>
<rect x="304" y="64" width="10" height="10" rx="2" fill="#00C951"/>
<rect x="292" y="64" width="10" height="10" rx="2" fill="#00C951"/>
<rect x="280" y="64" width="10" height="10" rx="2" fill="#00C951"/>
<rect x="268" y="64" width="10" height="10" rx="2" fill="#00C951"/>
<rect x="256" y="64" width="10" height="10" rx="2" fill="#00C951"/>
<rect x="244" y="64" width="10" height="10" rx="2" fill="#00C951"/>
<rect x="232" y="64" width="10" height="10" rx="2" fill="#00C951"/>
<rect x="220" y="64" width="10" height="10" rx="2" fill="#00C951"/>
<rect x="208" y="64" width="10" height="10" rx="2" fill="#00C951"/>
<rect x="196" y="64" width="10" height="10" rx="2" fill="#00C951"/>
<rect x="184" y="64" width="10" height="10" rx="2" fill="#00C951"/>
<rect x="172" y="64" width="10" height="10" rx="2" fill="#00C951"/>
<rect x="160" y="64" width="10" height="10" rx="2" fill="#00C951"/>
<rect x="148" y="64" width="10" height="10" rx="2" fill="#00C951"/>
<rect x="136" y="64" width="10" height="10" rx="2" fill="#00C951"/>
<rect x="124" y="64" width="10" height="10" rx="2" fill="#00C951"/>
<rect x="112" y="64" width="10" height="10" rx="2" fill="#00C951"/>
<rect x="100" y="64" width="10" height="10" rx="2" fill="#00C951"/>
<rect x="88" y="64" width="10" height="10" rx="2" fill="#00C951"/>
<rect x="76" y="64" width="10" height="10" rx="2" fill="#00C951"/>
<rect x="64" y="64" width="10" height="10" rx="2" fill="#00C951"/>
<rect x="52" y="64" width="10" height="10" rx="2" fill="#00C951"/>
<rect x="40" y="64" width="10" height="10" rx="2" fill="#00C951"/>
<rect x="28" y="64" width="10" height="10" rx="2" fill="#00C951"/>
<rect x="16" y="64" width="10" height="10" rx="2" fill="#00C951"/>
<rect x="4" y="64" width="10" height="10" rx="2" fill="#00C951"/>
<rect x="424" y="64" width="10" height="10" rx="2" fill="#00C951"/>
<rect x="436" y="64" width="10" height="10" rx="2" fill="#00C951"/>
<rect x="448" y="64" width="10" height="10" rx="2" fill="#00C951"/>
<rect x="460" y="64" width="10" height="10" rx="2" fill="#00C951"/>
<rect x="472" y="64" width="10" height="10" rx="2" fill="#00C951"/>
<rect x="484" y="64" width="10" height="10" rx="2" fill="#00C951"/>
<rect x="496" y="64" width="10" height="10" rx="2" fill="#FB2C36"/>
<rect x="508" y="64" width="10" height="10" rx="2" fill="#FB2C36"/>
<rect x="520" y="64" width="10" height="10" rx="2" fill="#FB2C36"/>
<rect x="532" y="64" width="10" height="10" rx="2" fill="#00C951"/>
<rect x="544" y="64" width="10" height="10" rx="2" fill="#00C951"/>
<rect x="556" y="64" width="10" height="10" rx="2" fill="#00C951"/>
<rect x="352" y="76" width="10" height="10" rx="2" fill="#00C951"/>
<rect x="364" y="76" width="10" height="10" rx="2" fill="#00C951"/>
<rect x="376" y="76" width="10" height="10" rx="2" fill="#00C951"/>
<rect x="388" y="76" width="10" height="10" rx="2" fill="#00C951"/>
<rect x="400" y="76" width="10" height="10" rx="2" fill="#00C951"/>
<rect x="412" y="76" width="10" height="10" rx="2" fill="#00C951"/>
<rect x="340" y="76" width="10" height="10" rx="2" fill="#00C951"/>
<rect x="328" y="76" width="10" height="10" rx="2" fill="#00C951"/>
<rect x="316" y="76" width="10" height="10" rx="2" fill="#00C951"/>
<rect x="304" y="76" width="10" height="10" rx="2" fill="#00C951"/>
<rect x="292" y="76" width="10" height="10" rx="2" fill="#00C951"/>
<rect x="280" y="76" width="10" height="10" rx="2" fill="#00C951"/>
<rect x="268" y="76" width="10" height="10" rx="2" fill="#00C951"/>
<rect x="256" y="76" width="10" height="10" rx="2" fill="#00C951"/>
<rect x="244" y="76" width="10" height="10" rx="2" fill="#00C951"/>
<rect x="232" y="76" width="10" height="10" rx="2" fill="#00C951"/>
<rect x="220" y="76" width="10" height="10" rx="2" fill="#00C951"/>
<rect x="208" y="76" width="10" height="10" rx="2" fill="#00C951"/>
<rect x="196" y="76" width="10" height="10" rx="2" fill="#00C951"/>
<rect x="184" y="76" width="10" height="10" rx="2" fill="#00C951"/>
<rect x="172" y="76" width="10" height="10" rx="2" fill="#00C951"/>
<rect x="160" y="76" width="10" height="10" rx="2" fill="#00C951"/>
<rect x="148" y="76" width="10" height="10" rx="2" fill="#00C951"/>
<rect x="136" y="76" width="10" height="10" rx="2" fill="#00C951"/>
<rect x="124" y="76" width="10" height="10" rx="2" fill="#00C951"/>
<rect x="112" y="76" width="10" height="10" rx="2" fill="#00C951"/>
<rect x="100" y="76" width="10" height="10" rx="2" fill="#00C951"/>
<rect x="88" y="76" width="10" height="10" rx="2" fill="#00C951"/>
<rect x="76" y="76" width="10" height="10" rx="2" fill="#00C951"/>
<rect x="64" y="76" width="10" height="10" rx="2" fill="#00C951"/>
<rect x="52" y="76" width="10" height="10" rx="2" fill="#00C951"/>
<rect x="40" y="76" width="10" height="10" rx="2" fill="#00C951"/>
<rect x="28" y="76" width="10" height="10" rx="2" fill="#FB2C36"/>
<rect x="16" y="76" width="10" height="10" rx="2" fill="#FB2C36"/>
<rect x="4" y="76" width="10" height="10" rx="2" fill="#FB2C36"/>
<rect x="424" y="76" width="10" height="10" rx="2" fill="#00C951"/>
<rect x="436" y="76" width="10" height="10" rx="2" fill="#00C951"/>
<rect x="448" y="76" width="10" height="10" rx="2" fill="#00C951"/>
<rect x="460" y="76" width="10" height="10" rx="2" fill="#00C951"/>
<rect x="472" y="76" width="10" height="10" rx="2" fill="#00C951"/>
<rect x="484" y="76" width="10" height="10" rx="2" fill="#00C951"/>
<rect x="496" y="76" width="10" height="10" rx="2" fill="#00C951"/>
<rect x="508" y="76" width="10" height="10" rx="2" fill="#00C951"/>
<rect x="520" y="76" width="10" height="10" rx="2" fill="#00C951"/>
<rect x="532" y="76" width="10" height="10" rx="2" fill="#00C951"/>
<rect x="544" y="76" width="10" height="10" rx="2" fill="#00C951"/>
<rect x="556" y="76" width="10" height="10" rx="2" fill="#00C951"/>
<rect x="431" y="43" width="118" height="19" rx="2" fill="#373737" fill-opacity="0.95"/>
<path d="M500.702 67L505.898 61.75H495.506L500.702 67Z" fill="#373737" fill-opacity="0.95"/>
<path d="M435.22 57L438.861 53.117C439.03 52.9337 439.173 52.754 439.29 52.578C439.415 52.3947 439.506 52.2113 439.565 52.028C439.631 51.8373 439.664 51.6393 439.664 51.434C439.664 51.2653 439.631 51.1003 439.565 50.939C439.499 50.7777 439.4 50.631 439.268 50.499C439.143 50.367 438.989 50.2607 438.806 50.18C438.623 50.0993 438.414 50.059 438.179 50.059C437.849 50.059 437.563 50.136 437.321 50.29C437.086 50.4367 436.907 50.653 436.782 50.939C436.657 51.2177 436.595 51.5513 436.595 51.94H435.66C435.66 51.39 435.759 50.9097 435.957 50.499C436.155 50.081 436.441 49.7583 436.815 49.531C437.196 49.2963 437.651 49.179 438.179 49.179C438.604 49.179 438.971 49.2523 439.279 49.399C439.587 49.5383 439.84 49.7217 440.038 49.949C440.236 50.169 440.383 50.4073 440.478 50.664C440.573 50.9207 440.621 51.1663 440.621 51.401C440.621 51.797 440.526 52.1893 440.335 52.578C440.144 52.9667 439.899 53.315 439.598 53.623L437.145 56.12H440.654V57H435.22ZM442.143 50.818V49.85L444.783 49.19V57H443.848V50.312L442.143 50.818ZM451.13 54.69L451.46 53.81H454.87L455.2 54.69H451.13ZM453.143 51.038L451.845 54.096L451.757 54.294L450.613 57H449.568L453.143 48.915L456.718 57H455.673L454.551 54.36L454.463 54.14L453.143 51.038ZM458.265 55.02C458.265 55.4233 458.356 55.735 458.54 55.955C458.723 56.175 458.991 56.285 459.343 56.285C459.599 56.285 459.823 56.2337 460.014 56.131C460.212 56.021 460.362 55.8707 460.465 55.68C460.575 55.4893 460.63 55.2693 460.63 55.02V51.94H461.51V57H460.63V56.208C460.461 56.5087 460.252 56.736 460.003 56.89C459.753 57.0367 459.46 57.11 459.123 57.11C458.595 57.11 458.173 56.9303 457.858 56.571C457.542 56.2117 457.385 55.7313 457.385 55.13V51.94H458.265V55.02ZM462.823 57.33H463.714C463.714 57.572 463.78 57.7957 463.912 58.001C464.044 58.2137 464.231 58.3823 464.473 58.507C464.715 58.639 465.001 58.705 465.331 58.705C465.588 58.705 465.841 58.6427 466.09 58.518C466.339 58.3933 466.545 58.1953 466.706 57.924C466.875 57.66 466.959 57.3153 466.959 56.89V51.94H467.839V56.89C467.839 57.4693 467.718 57.9533 467.476 58.342C467.234 58.738 466.922 59.035 466.541 59.233C466.16 59.431 465.756 59.53 465.331 59.53C464.84 59.53 464.403 59.4383 464.022 59.255C463.648 59.0717 463.355 58.8113 463.142 58.474C462.929 58.144 462.823 57.7627 462.823 57.33ZM462.724 54.47C462.724 53.92 462.838 53.4507 463.065 53.062C463.292 52.666 463.597 52.3617 463.978 52.149C464.359 51.9363 464.777 51.83 465.232 51.83C465.657 51.83 466.028 51.9363 466.343 52.149C466.658 52.3617 466.904 52.666 467.08 53.062C467.263 53.4507 467.355 53.92 467.355 54.47C467.355 55.0127 467.263 55.482 467.08 55.878C466.904 56.274 466.658 56.5783 466.343 56.791C466.028 57.0037 465.657 57.11 465.232 57.11C464.777 57.11 464.359 57.0037 463.978 56.791C463.597 56.5783 463.292 56.274 463.065 55.878C462.838 55.482 462.724 55.0127 462.724 54.47ZM463.615 54.47C463.615 54.8587 463.692 55.1887 463.846 55.46C464.007 55.7313 464.22 55.9367 464.484 56.076C464.748 56.2153 465.034 56.285 465.342 56.285C465.599 56.285 465.852 56.2153 466.101 56.076C466.35 55.9367 466.556 55.7313 466.717 55.46C466.878 55.1887 466.959 54.8587 466.959 54.47C466.959 54.1767 466.911 53.92 466.816 53.7C466.721 53.4727 466.592 53.282 466.431 53.128C466.277 52.974 466.105 52.8567 465.914 52.776C465.723 52.6953 465.533 52.655 465.342 52.655C465.034 52.655 464.748 52.7247 464.484 52.864C464.22 53.0033 464.007 53.2087 463.846 53.48C463.692 53.7513 463.615 54.0813 463.615 54.47ZM472.13 57L475.771 53.117C475.94 52.9337 476.083 52.754 476.2 52.578C476.325 52.3947 476.416 52.2113 476.475 52.028C476.541 51.8373 476.574 51.6393 476.574 51.434C476.574 51.2653 476.541 51.1003 476.475 50.939C476.409 50.7777 476.31 50.631 476.178 50.499C476.053 50.367 475.899 50.2607 475.716 50.18C475.533 50.0993 475.324 50.059 475.089 50.059C474.759 50.059 474.473 50.136 474.231 50.29C473.996 50.4367 473.817 50.653 473.692 50.939C473.567 51.2177 473.505 51.5513 473.505 51.94H472.57C472.57 51.39 472.669 50.9097 472.867 50.499C473.065 50.081 473.351 49.7583 473.725 49.531C474.106 49.2963 474.561 49.179 475.089 49.179C475.514 49.179 475.881 49.2523 476.189 49.399C476.497 49.5383 476.75 49.7217 476.948 49.949C477.146 50.169 477.293 50.4073 477.388 50.664C477.483 50.9207 477.531 51.1663 477.531 51.401C477.531 51.797 477.436 52.1893 477.245 52.578C477.054 52.9667 476.809 53.315 476.508 53.623L474.055 56.12H477.564V57H472.13ZM479.548 53.15C479.548 53.5973 479.592 54.0117 479.68 54.393C479.768 54.767 479.896 55.0933 480.065 55.372C480.234 55.6433 480.435 55.856 480.67 56.01C480.912 56.1567 481.18 56.23 481.473 56.23C481.774 56.23 482.041 56.1567 482.276 56.01C482.511 55.856 482.712 55.6433 482.881 55.372C483.05 55.0933 483.178 54.767 483.266 54.393C483.354 54.0117 483.398 53.5973 483.398 53.15C483.398 52.7027 483.354 52.292 483.266 51.918C483.178 51.5367 483.05 51.2103 482.881 50.939C482.712 50.6603 482.511 50.4477 482.276 50.301C482.041 50.147 481.774 50.07 481.473 50.07C481.18 50.07 480.912 50.147 480.67 50.301C480.435 50.4477 480.234 50.6603 480.065 50.939C479.896 51.2103 479.768 51.5367 479.68 51.918C479.592 52.292 479.548 52.7027 479.548 53.15ZM478.613 53.15C478.613 52.38 478.734 51.698 478.976 51.104C479.218 50.51 479.552 50.0443 479.977 49.707C480.41 49.3623 480.908 49.19 481.473 49.19C482.038 49.19 482.533 49.3623 482.958 49.707C483.391 50.0443 483.728 50.51 483.97 51.104C484.212 51.698 484.333 52.38 484.333 53.15C484.333 53.92 484.212 54.602 483.97 55.196C483.728 55.79 483.391 56.2593 482.958 56.604C482.533 56.9413 482.038 57.11 481.473 57.11C480.908 57.11 480.41 56.9413 479.977 56.604C479.552 56.2593 479.218 55.79 478.976 55.196C478.734 54.602 478.613 53.92 478.613 53.15ZM484.989 57L488.63 53.117C488.798 52.9337 488.941 52.754 489.059 52.578C489.183 52.3947 489.275 52.2113 489.334 52.028C489.4 51.8373 489.433 51.6393 489.433 51.434C489.433 51.2653 489.4 51.1003 489.334 50.939C489.268 50.7777 489.169 50.631 489.037 50.499C488.912 50.367 488.758 50.2607 488.575 50.18C488.391 50.0993 488.182 50.059 487.948 50.059C487.618 50.059 487.332 50.136 487.09 50.29C486.855 50.4367 486.675 50.653 486.551 50.939C486.426 51.2177 486.364 51.5513 486.364 51.94H485.429C485.429 51.39 485.528 50.9097 485.726 50.499C485.924 50.081 486.21 49.7583 486.584 49.531C486.965 49.2963 487.42 49.179 487.948 49.179C488.373 49.179 488.74 49.2523 489.048 49.399C489.356 49.5383 489.609 49.7217 489.807 49.949C490.005 50.169 490.151 50.4073 490.247 50.664C490.342 50.9207 490.39 51.1663 490.39 51.401C490.39 51.797 490.294 52.1893 490.104 52.578C489.913 52.9667 489.667 53.315 489.367 53.623L486.914 56.12H490.423V57H484.989ZM496.795 54.47C496.795 54.91 496.726 55.295 496.586 55.625C496.447 55.955 496.253 56.23 496.003 56.45C495.754 56.67 495.468 56.835 495.145 56.945C494.823 57.055 494.474 57.11 494.1 57.11C493.631 57.11 493.22 57.0367 492.868 56.89C492.524 56.7433 492.227 56.549 491.977 56.307C491.735 56.0577 491.53 55.7863 491.361 55.493L492.153 54.954C492.271 55.174 492.425 55.383 492.615 55.581C492.813 55.7717 493.041 55.9293 493.297 56.054C493.554 56.1713 493.822 56.23 494.1 56.23C494.467 56.23 494.779 56.1567 495.035 56.01C495.292 55.8633 495.486 55.658 495.618 55.394C495.758 55.13 495.827 54.822 495.827 54.47C495.827 54.118 495.75 53.81 495.596 53.546C495.45 53.282 495.244 53.0767 494.98 52.93C494.724 52.7833 494.43 52.71 494.1 52.71C493.858 52.71 493.635 52.732 493.429 52.776C493.231 52.8127 493.03 52.8823 492.824 52.985C492.626 53.0803 492.395 53.2197 492.131 53.403L493.143 49.3H496.773V50.125H493.869L493.352 52.16C493.536 52.0647 493.723 51.995 493.913 51.951C494.111 51.8997 494.306 51.874 494.496 51.874C494.936 51.874 495.329 51.984 495.673 52.204C496.025 52.424 496.3 52.7283 496.498 53.117C496.696 53.5057 496.795 53.9567 496.795 54.47ZM500.593 54.8V53.975H502.793V54.8H500.593ZM506.366 55.46L510.634 49.3H511.019V57H510.084V55.064V54.943V51.379L507.906 54.635H510.469H510.656H512.229V55.46H506.366ZM513.604 56.56C513.604 56.3913 513.662 56.2483 513.78 56.131C513.904 56.0137 514.047 55.955 514.209 55.955C514.377 55.955 514.52 56.0137 514.638 56.131C514.755 56.2483 514.814 56.3913 514.814 56.56C514.814 56.7213 514.755 56.8643 514.638 56.989C514.52 57.1063 514.377 57.165 514.209 57.165C514.047 57.165 513.904 57.1063 513.78 56.989C513.662 56.8643 513.604 56.7213 513.604 56.56ZM513.604 52.38C513.604 52.2113 513.662 52.0683 513.78 51.951C513.904 51.8337 514.047 51.775 514.209 51.775C514.377 51.775 514.52 51.8337 514.638 51.951C514.755 52.0683 514.814 52.2113 514.814 52.38C514.814 52.5413 514.755 52.6843 514.638 52.809C514.52 52.9263 514.377 52.985 514.209 52.985C514.047 52.985 513.904 52.9263 513.78 52.809C513.662 52.6843 513.604 52.5413 513.604 52.38ZM516.736 50.818V49.85L519.376 49.19V57H518.441V50.312L516.736 50.818ZM521.139 50.18V49.3H526.529L522.844 57H521.865L525.132 50.18H521.139ZM530.766 49.3H531.701V57H530.766V49.3ZM531.283 50.18V49.3H532.856C533.354 49.3 533.798 49.3953 534.187 49.586C534.583 49.7693 534.894 50.0333 535.122 50.378C535.356 50.7227 535.474 51.1333 535.474 51.61C535.474 52.0793 535.356 52.49 535.122 52.842C534.894 53.1867 534.583 53.4543 534.187 53.645C533.798 53.8283 533.354 53.92 532.856 53.92H531.283V53.04H532.856C533.354 53.04 533.758 52.919 534.066 52.677C534.381 52.435 534.539 52.0793 534.539 51.61C534.539 51.1333 534.381 50.7777 534.066 50.543C533.758 50.301 533.354 50.18 532.856 50.18H531.283ZM537.859 51.797L537.287 57H536.352L537.287 48.915L540.367 54.492L543.447 48.915L544.382 57H543.447L542.875 51.797L540.367 56.285L537.859 51.797Z" fill="white"/>
</svg>
