<svg width="438" height="91" viewBox="0 0 438 91" fill="none" xmlns="http://www.w3.org/2000/svg">
<rect width="438" height="91" fill="white"/>
<rect x="220" y="4" width="10" height="10" rx="2" fill="#00C951"/>
<rect x="232" y="4" width="10" height="10" rx="2" fill="#00C951"/>
<rect x="244" y="4" width="10" height="10" rx="2" fill="#00C951"/>
<rect x="256" y="4" width="10" height="10" rx="2" fill="#00C951"/>
<rect x="268" y="4" width="10" height="10" rx="2" fill="#00C951"/>
<rect x="280" y="4" width="10" height="10" rx="2" fill="#00C951"/>
<rect x="208" y="4" width="10" height="10" rx="2" fill="#00C951"/>
<rect x="196" y="4" width="10" height="10" rx="2" fill="#00C951"/>
<rect x="184" y="4" width="10" height="10" rx="2" fill="#00C951"/>
<rect x="172" y="4" width="10" height="10" rx="2" fill="#00C951"/>
<rect x="160" y="4" width="10" height="10" rx="2" fill="#00C951"/>
<rect x="148" y="4" width="10" height="10" rx="2" fill="#00C951"/>
<rect x="136" y="4" width="10" height="10" rx="2" fill="#00C951"/>
<rect x="124" y="4" width="10" height="10" rx="2" fill="#00C951"/>
<rect x="112" y="4" width="10" height="10" rx="2" fill="#00C951"/>
<rect x="100" y="4" width="10" height="10" rx="2" fill="#00C951"/>
<rect x="88" y="4" width="10" height="10" rx="2" fill="#00C951"/>
<rect x="76" y="4" width="10" height="10" rx="2" fill="#00C951"/>
<rect x="64" y="4" width="10" height="10" rx="2" fill="#00C951"/>
<rect x="52" y="4" width="10" height="10" rx="2" fill="#00C951"/>
<rect x="40" y="4" width="10" height="10" rx="2" fill="#00C951"/>
<rect x="28" y="4" width="10" height="10" rx="2" fill="#00C951"/>
<rect x="16" y="4" width="10" height="10" rx="2" fill="#00C951"/>
<rect x="4" y="4" width="10" height="10" rx="2" fill="#00C951"/>
<rect x="292" y="4" width="10" height="10" rx="2" fill="#00C951"/>
<rect x="304" y="4" width="10" height="10" rx="2" fill="#00C951"/>
<rect x="316" y="4" width="10" height="10" rx="2" fill="#00C951"/>
<rect x="328" y="4" width="10" height="10" rx="2" fill="#00C951"/>
<rect x="340" y="4" width="10" height="10" rx="2" fill="#00C951"/>
<rect x="352" y="4" width="10" height="10" rx="2" fill="#00C951"/>
<rect x="364" y="4" width="10" height="10" rx="2" fill="#00C951"/>
<rect x="376" y="4" width="10" height="10" rx="2" fill="#00C951"/>
<rect x="388" y="4" width="10" height="10" rx="2" fill="#00C951"/>
<rect x="400" y="4" width="10" height="10" rx="2" fill="#00C951"/>
<rect x="412" y="4" width="10" height="10" rx="2" fill="#00C951"/>
<rect x="424" y="4" width="10" height="10" rx="2" fill="#00C951"/>
<rect x="220" y="16" width="10" height="10" rx="2" fill="#00C951"/>
<rect x="232" y="16" width="10" height="10" rx="2" fill="#00C951"/>
<rect x="244" y="16" width="10" height="10" rx="2" fill="#00C951"/>
<rect x="256" y="16" width="10" height="10" rx="2" fill="#00C951"/>
<rect x="268" y="16" width="10" height="10" rx="2" fill="#00C951"/>
<rect x="280" y="16" width="10" height="10" rx="2" fill="#00C951"/>
<rect x="208" y="16" width="10" height="10" rx="2" fill="#00C951"/>
<rect x="196" y="16" width="10" height="10" rx="2" fill="#00C951"/>
<rect x="184" y="16" width="10" height="10" rx="2" fill="#00C951"/>
<rect x="172" y="16" width="10" height="10" rx="2" fill="#00C951"/>
<rect x="160" y="16" width="10" height="10" rx="2" fill="#00C951"/>
<rect x="148" y="16" width="10" height="10" rx="2" fill="#00C951"/>
<rect x="136" y="16" width="10" height="10" rx="2" fill="#00C951"/>
<rect x="124" y="16" width="10" height="10" rx="2" fill="#00C951"/>
<rect x="112" y="16" width="10" height="10" rx="2" fill="#00C951"/>
<rect x="100" y="16" width="10" height="10" rx="2" fill="#00C951"/>
<rect x="88" y="16" width="10" height="10" rx="2" fill="#00C951"/>
<rect x="76" y="16" width="10" height="10" rx="2" fill="#00C951"/>
<rect x="64" y="16" width="10" height="10" rx="2" fill="#00C951"/>
<rect x="52" y="16" width="10" height="10" rx="2" fill="#00C951"/>
<rect x="40" y="16" width="10" height="10" rx="2" fill="#00C951"/>
<rect x="28" y="16" width="10" height="10" rx="2" fill="#00C951"/>
<rect x="16" y="16" width="10" height="10" rx="2" fill="#00C951"/>
<rect x="4" y="16" width="10" height="10" rx="2" fill="#00C951"/>
<rect x="292" y="16" width="10" height="10" rx="2" fill="#00C951"/>
<rect x="304" y="16" width="10" height="10" rx="2" fill="#00C951"/>
<rect x="316" y="16" width="10" height="10" rx="2" fill="#00C951"/>
<rect x="328" y="16" width="10" height="10" rx="2" fill="#00C951"/>
<rect x="340" y="16" width="10" height="10" rx="2" fill="#00C951"/>
<rect x="352" y="16" width="10" height="10" rx="2" fill="#00C951"/>
<rect x="364" y="16" width="10" height="10" rx="2" fill="#00C951"/>
<rect x="376" y="16" width="10" height="10" rx="2" fill="#00C951"/>
<rect x="388" y="16" width="10" height="10" rx="2" fill="#00C951"/>
<rect x="400" y="16" width="10" height="10" rx="2" fill="#00C951"/>
<rect x="412" y="16" width="10" height="10" rx="2" fill="#00C951"/>
<rect x="424" y="16" width="10" height="10" rx="2" fill="#00C951"/>
<rect x="220" y="28" width="10" height="10" rx="2" fill="#FB2C36"/>
<rect x="232" y="28" width="10" height="10" rx="2" fill="#FB2C36"/>
<rect x="244" y="28" width="10" height="10" rx="2" fill="#FB2C36"/>
<rect x="256" y="28" width="10" height="10" rx="2" fill="#FB2C36"/>
<rect x="268" y="28" width="10" height="10" rx="2" fill="#FB2C36"/>
<rect x="280" y="28" width="10" height="10" rx="2" fill="#00C951"/>
<rect x="208" y="28" width="10" height="10" rx="2" fill="#00C951"/>
<rect x="196" y="28" width="10" height="10" rx="2" fill="#00C951"/>
<rect x="184" y="28" width="10" height="10" rx="2" fill="#00C951"/>
<rect x="172" y="28" width="10" height="10" rx="2" fill="#00C951"/>
<rect x="160" y="28" width="10" height="10" rx="2" fill="#00C951"/>
<rect x="148" y="28" width="10" height="10" rx="2" fill="#00C951"/>
<rect x="136" y="28" width="10" height="10" rx="2" fill="#00C951"/>
<rect x="124" y="28" width="10" height="10" rx="2" fill="#00C951"/>
<rect x="112" y="28" width="10" height="10" rx="2" fill="#00C951"/>
<rect x="100" y="28" width="10" height="10" rx="2" fill="#00C951"/>
<rect x="88" y="28" width="10" height="10" rx="2" fill="#00C951"/>
<rect x="76" y="28" width="10" height="10" rx="2" fill="#00C951"/>
<rect x="64" y="28" width="10" height="10" rx="2" fill="#00C951"/>
<rect x="52" y="28" width="10" height="10" rx="2" fill="#00C951"/>
<rect x="40" y="28" width="10" height="10" rx="2" fill="#00C951"/>
<rect x="28" y="28" width="10" height="10" rx="2" fill="#00C951"/>
<rect x="16" y="28" width="10" height="10" rx="2" fill="#00C951"/>
<rect x="4" y="28" width="10" height="10" rx="2" fill="#00C951"/>
<rect x="292" y="28" width="10" height="10" rx="2" fill="#00C951"/>
<rect x="304" y="28" width="10" height="10" rx="2" fill="#00C951"/>
<rect x="316" y="28" width="10" height="10" rx="2" fill="#00C951"/>
<rect x="328" y="28" width="10" height="10" rx="2" fill="#00C951"/>
<rect x="340" y="28" width="10" height="10" rx="2" fill="#00C951"/>
<rect x="352" y="28" width="10" height="10" rx="2" fill="#00C951"/>
<rect x="364" y="28" width="10" height="10" rx="2" fill="#00C951"/>
<rect x="376" y="28" width="10" height="10" rx="2" fill="#00C951"/>
<rect x="388" y="28" width="10" height="10" rx="2" fill="#00C951"/>
<rect x="400" y="28" width="10" height="10" rx="2" fill="#00C951"/>
<rect x="412" y="28" width="10" height="10" rx="2" fill="#00C951"/>
<rect x="424" y="28" width="10" height="10" rx="2" fill="#00C951"/>
<rect x="220" y="40" width="10" height="10" rx="2" fill="#00C951"/>
<rect x="232" y="40" width="10" height="10" rx="2" fill="#00C951"/>
<rect x="244" y="40" width="10" height="10" rx="2" fill="#00C951"/>
<rect x="256" y="40" width="10" height="10" rx="2" fill="#00C951"/>
<rect x="268" y="40" width="10" height="10" rx="2" fill="#00C951"/>
<rect x="280" y="40" width="10" height="10" rx="2" fill="#00C951"/>
<rect x="208" y="40" width="10" height="10" rx="2" fill="#00C951"/>
<rect x="196" y="40" width="10" height="10" rx="2" fill="#00C951"/>
<rect x="184" y="40" width="10" height="10" rx="2" fill="#00C951"/>
<rect x="172" y="40" width="10" height="10" rx="2" fill="#00C951"/>
<rect x="160" y="40" width="10" height="10" rx="2" fill="#00C951"/>
<rect x="148" y="40" width="10" height="10" rx="2" fill="#00C951"/>
<rect x="136" y="40" width="10" height="10" rx="2" fill="#00C951"/>
<rect x="124" y="40" width="10" height="10" rx="2" fill="#00C951"/>
<rect x="112" y="40" width="10" height="10" rx="2" fill="#00C951"/>
<rect x="100" y="40" width="10" height="10" rx="2" fill="#00C951"/>
<rect x="88" y="40" width="10" height="10" rx="2" fill="#00C951"/>
<rect x="76" y="40" width="10" height="10" rx="2" fill="#00C951"/>
<rect x="64" y="40" width="10" height="10" rx="2" fill="#00C951"/>
<rect x="52" y="40" width="10" height="10" rx="2" fill="#00C951"/>
<rect x="40" y="40" width="10" height="10" rx="2" fill="#00C951"/>
<rect x="28" y="40" width="10" height="10" rx="2" fill="#00C951"/>
<rect x="16" y="40" width="10" height="10" rx="2" fill="#00C951"/>
<rect x="4" y="40" width="10" height="10" rx="2" fill="#00C951"/>
<rect x="292" y="40" width="10" height="10" rx="2" fill="#00C951"/>
<rect x="304" y="40" width="10" height="10" rx="2" fill="#00C951"/>
<rect x="316" y="40" width="10" height="10" rx="2" fill="#00C951"/>
<rect x="328" y="40" width="10" height="10" rx="2" fill="#00C951"/>
<rect x="340" y="40" width="10" height="10" rx="2" fill="#00C951"/>
<rect x="352" y="40" width="10" height="10" rx="2" fill="#00C951"/>
<rect x="364" y="40" width="10" height="10" rx="2" fill="#00C951"/>
<rect x="376" y="40" width="10" height="10" rx="2" fill="#00C951"/>
<rect x="388" y="40" width="10" height="10" rx="2" fill="#00C951"/>
<rect x="400" y="40" width="10" height="10" rx="2" fill="#00C951"/>
<rect x="412" y="40" width="10" height="10" rx="2" fill="#00C951"/>
<rect x="424" y="40" width="10" height="10" rx="2" fill="#00C951"/>
<rect x="220" y="52" width="10" height="10" rx="2" fill="#00C951"/>
<rect x="232" y="52" width="10" height="10" rx="2" fill="#00C951"/>
<rect x="244" y="52" width="10" height="10" rx="2" fill="#00C951"/>
<rect x="256" y="52" width="10" height="10" rx="2" fill="#00C951"/>
<rect x="268" y="52" width="10" height="10" rx="2" fill="#00C951"/>
<rect x="280" y="52" width="10" height="10" rx="2" fill="#00C951"/>
<rect x="208" y="52" width="10" height="10" rx="2" fill="#00C951"/>
<rect x="196" y="52" width="10" height="10" rx="2" fill="#00C951"/>
<rect x="184" y="52" width="10" height="10" rx="2" fill="#00C951"/>
<rect x="172" y="52" width="10" height="10" rx="2" fill="#00C951"/>
<rect x="160" y="52" width="10" height="10" rx="2" fill="#00C951"/>
<rect x="148" y="52" width="10" height="10" rx="2" fill="#00C951"/>
<rect x="136" y="52" width="10" height="10" rx="2" fill="#00C951"/>
<rect x="124" y="52" width="10" height="10" rx="2" fill="#00C951"/>
<rect x="112" y="52" width="10" height="10" rx="2" fill="#00C951"/>
<rect x="100" y="52" width="10" height="10" rx="2" fill="#00C951"/>
<rect x="88" y="52" width="10" height="10" rx="2" fill="#00C951"/>
<rect x="76" y="52" width="10" height="10" rx="2" fill="#00C951"/>
<rect x="64" y="52" width="10" height="10" rx="2" fill="#00C951"/>
<rect x="52" y="52" width="10" height="10" rx="2" fill="#00C951"/>
<rect x="40" y="52" width="10" height="10" rx="2" fill="#00C951"/>
<rect x="28" y="52" width="10" height="10" rx="2" fill="#00C951"/>
<rect x="16" y="52" width="10" height="10" rx="2" fill="#00C951"/>
<rect x="4" y="52" width="10" height="10" rx="2" fill="#00C951"/>
<rect x="292" y="52" width="10" height="10" rx="2" fill="#00C951"/>
<rect x="304" y="52" width="10" height="10" rx="2" fill="#00C951"/>
<rect x="316" y="52" width="10" height="10" rx="2" fill="#00C951"/>
<rect x="328" y="52" width="10" height="10" rx="2" fill="#00C951"/>
<rect x="340" y="52" width="10" height="10" rx="2" fill="#00C951"/>
<rect x="352" y="52" width="10" height="10" rx="2" fill="#00C951"/>
<rect x="364" y="52" width="10" height="10" rx="2" fill="#00C951"/>
<rect x="376" y="52" width="10" height="10" rx="2" fill="#00C951"/>
<rect x="388" y="52" width="10" height="10" rx="2" fill="#00C951"/>
<rect x="400" y="52" width="10" height="10" rx="2" fill="#00C951"/>
<rect x="412" y="52" width="10" height="10" rx="2" fill="#00C951"/>
<rect x="424" y="52" width="10" height="10" rx="2" fill="#00C951"/>
<rect x="220" y="64" width="10" height="10" rx="2" fill="#00C951"/>
<rect x="232" y="64" width="10" height="10" rx="2" fill="#00C951"/>
<rect x="244" y="64" width="10" height="10" rx="2" fill="#00C951"/>
<rect x="256" y="64" width="10" height="10" rx="2" fill="#00C951"/>
<rect x="268" y="64" width="10" height="10" rx="2" fill="#00C951"/>
<rect x="280" y="64" width="10" height="10" rx="2" fill="#00C951"/>
<rect x="208" y="64" width="10" height="10" rx="2" fill="#00C951"/>
<rect x="196" y="64" width="10" height="10" rx="2" fill="#00C951"/>
<rect x="184" y="64" width="10" height="10" rx="2" fill="#00C951"/>
<rect x="172" y="64" width="10" height="10" rx="2" fill="#00C951"/>
<rect x="160" y="64" width="10" height="10" rx="2" fill="#00C951"/>
<rect x="148" y="64" width="10" height="10" rx="2" fill="#00C951"/>
<rect x="136" y="64" width="10" height="10" rx="2" fill="#00C951"/>
<rect x="124" y="64" width="10" height="10" rx="2" fill="#00C951"/>
<rect x="112" y="64" width="10" height="10" rx="2" fill="#00C951"/>
<rect x="100" y="64" width="10" height="10" rx="2" fill="#00C951"/>
<rect x="88" y="64" width="10" height="10" rx="2" fill="#00C951"/>
<rect x="76" y="64" width="10" height="10" rx="2" fill="#00C951"/>
<rect x="64" y="64" width="10" height="10" rx="2" fill="#00C951"/>
<rect x="52" y="64" width="10" height="10" rx="2" fill="#00C951"/>
<rect x="40" y="64" width="10" height="10" rx="2" fill="#00C951"/>
<rect x="28" y="64" width="10" height="10" rx="2" fill="#00C951"/>
<rect x="16" y="64" width="10" height="10" rx="2" fill="#00C951"/>
<rect x="4" y="64" width="10" height="10" rx="2" fill="#00C951"/>
<rect x="292" y="64" width="10" height="10" rx="2" fill="#00C951"/>
<rect x="304" y="64" width="10" height="10" rx="2" fill="#00C951"/>
<rect x="316" y="64" width="10" height="10" rx="2" fill="#00C951"/>
<rect x="328" y="64" width="10" height="10" rx="2" fill="#00C951"/>
<rect x="340" y="64" width="10" height="10" rx="2" fill="#00C951"/>
<rect x="352" y="64" width="10" height="10" rx="2" fill="#00C951"/>
<rect x="364" y="64" width="10" height="10" rx="2" fill="#FB2C36"/>
<rect x="376" y="64" width="10" height="10" rx="2" fill="#FB2C36"/>
<rect x="388" y="64" width="10" height="10" rx="2" fill="#FB2C36"/>
<rect x="400" y="64" width="10" height="10" rx="2" fill="#00C951"/>
<rect x="412" y="64" width="10" height="10" rx="2" fill="#00C951"/>
<rect x="424" y="64" width="10" height="10" rx="2" fill="#00C951"/>
<rect x="220" y="76" width="10" height="10" rx="2" fill="#00C951"/>
<rect x="232" y="76" width="10" height="10" rx="2" fill="#00C951"/>
<rect x="244" y="76" width="10" height="10" rx="2" fill="#00C951"/>
<rect x="256" y="76" width="10" height="10" rx="2" fill="#00C951"/>
<rect x="268" y="76" width="10" height="10" rx="2" fill="#00C951"/>
<rect x="280" y="76" width="10" height="10" rx="2" fill="#00C951"/>
<rect x="208" y="76" width="10" height="10" rx="2" fill="#00C951"/>
<rect x="196" y="76" width="10" height="10" rx="2" fill="#00C951"/>
<rect x="184" y="76" width="10" height="10" rx="2" fill="#00C951"/>
<rect x="172" y="76" width="10" height="10" rx="2" fill="#00C951"/>
<rect x="160" y="76" width="10" height="10" rx="2" fill="#00C951"/>
<rect x="148" y="76" width="10" height="10" rx="2" fill="#00C951"/>
<rect x="136" y="76" width="10" height="10" rx="2" fill="#00C951"/>
<rect x="124" y="76" width="10" height="10" rx="2" fill="#00C951"/>
<rect x="112" y="76" width="10" height="10" rx="2" fill="#00C951"/>
<rect x="100" y="76" width="10" height="10" rx="2" fill="#00C951"/>
<rect x="88" y="76" width="10" height="10" rx="2" fill="#00C951"/>
<rect x="76" y="76" width="10" height="10" rx="2" fill="#00C951"/>
<rect x="64" y="76" width="10" height="10" rx="2" fill="#00C951"/>
<rect x="52" y="76" width="10" height="10" rx="2" fill="#00C951"/>
<rect x="40" y="76" width="10" height="10" rx="2" fill="#00C951"/>
<rect x="28" y="76" width="10" height="10" rx="2" fill="#00C951"/>
<rect x="16" y="76" width="10" height="10" rx="2" fill="#00C951"/>
<rect x="4" y="76" width="10" height="10" rx="2" fill="#00C951"/>
<rect x="292" y="76" width="10" height="10" rx="2" fill="#00C951"/>
<rect x="304" y="76" width="10" height="10" rx="2" fill="#00C951"/>
<rect x="316" y="76" width="10" height="10" rx="2" fill="#00C951"/>
<rect x="328" y="76" width="10" height="10" rx="2" fill="#00C951"/>
<rect x="340" y="76" width="10" height="10" rx="2" fill="#00C951"/>
<rect x="352" y="76" width="10" height="10" rx="2" fill="#00C951"/>
<rect x="364" y="76" width="10" height="10" rx="2" fill="#00C951"/>
<rect x="376" y="76" width="10" height="10" rx="2" fill="#00C951"/>
<rect x="388" y="76" width="10" height="10" rx="2" fill="#00C951"/>
<rect x="400" y="76" width="10" height="10" rx="2" fill="#00C951"/>
<rect x="412" y="76" width="10" height="10" rx="2" fill="#00C951"/>
<rect x="424" y="76" width="10" height="10" rx="2" fill="#00C951"/>
<rect x="315" y="43" width="109" height="19" rx="2" fill="#373737" fill-opacity="0.95"/>
<path d="M369.542 67L374.342 61.75H364.743L369.542 67Z" fill="#373737" fill-opacity="0.95"/>
<path d="M321.22 57L324.861 53.117C325.03 52.9337 325.173 52.754 325.29 52.578C325.415 52.3947 325.506 52.2113 325.565 52.028C325.631 51.8373 325.664 51.6393 325.664 51.434C325.664 51.2653 325.631 51.1003 325.565 50.939C325.499 50.7777 325.4 50.631 325.268 50.499C325.143 50.367 324.989 50.2607 324.806 50.18C324.623 50.0993 324.414 50.059 324.179 50.059C323.849 50.059 323.563 50.136 323.321 50.29C323.086 50.4367 322.907 50.653 322.782 50.939C322.657 51.2177 322.595 51.5513 322.595 51.94H321.66C321.66 51.39 321.759 50.9097 321.957 50.499C322.155 50.081 322.441 49.7583 322.815 49.531C323.196 49.2963 323.651 49.179 324.179 49.179C324.604 49.179 324.971 49.2523 325.279 49.399C325.587 49.5383 325.84 49.7217 326.038 49.949C326.236 50.169 326.383 50.4073 326.478 50.664C326.573 50.9207 326.621 51.1663 326.621 51.401C326.621 51.797 326.526 52.1893 326.335 52.578C326.144 52.9667 325.899 53.315 325.598 53.623L323.145 56.12H326.654V57H321.22ZM328.143 50.818V49.85L330.783 49.19V57H329.848V50.312L328.143 50.818ZM337.13 54.69L337.46 53.81H340.87L341.2 54.69H337.13ZM339.143 51.038L337.845 54.096L337.757 54.294L336.613 57H335.568L339.143 48.915L342.718 57H341.673L340.551 54.36L340.463 54.14L339.143 51.038ZM344.265 55.02C344.265 55.4233 344.356 55.735 344.54 55.955C344.723 56.175 344.991 56.285 345.343 56.285C345.599 56.285 345.823 56.2337 346.014 56.131C346.212 56.021 346.362 55.8707 346.465 55.68C346.575 55.4893 346.63 55.2693 346.63 55.02V51.94H347.51V57H346.63V56.208C346.461 56.5087 346.252 56.736 346.003 56.89C345.753 57.0367 345.46 57.11 345.123 57.11C344.595 57.11 344.173 56.9303 343.858 56.571C343.542 56.2117 343.385 55.7313 343.385 55.13V51.94H344.265V55.02ZM348.823 57.33H349.714C349.714 57.572 349.78 57.7957 349.912 58.001C350.044 58.2137 350.231 58.3823 350.473 58.507C350.715 58.639 351.001 58.705 351.331 58.705C351.588 58.705 351.841 58.6427 352.09 58.518C352.339 58.3933 352.545 58.1953 352.706 57.924C352.875 57.66 352.959 57.3153 352.959 56.89V51.94H353.839V56.89C353.839 57.4693 353.718 57.9533 353.476 58.342C353.234 58.738 352.922 59.035 352.541 59.233C352.16 59.431 351.756 59.53 351.331 59.53C350.84 59.53 350.403 59.4383 350.022 59.255C349.648 59.0717 349.355 58.8113 349.142 58.474C348.929 58.144 348.823 57.7627 348.823 57.33ZM348.724 54.47C348.724 53.92 348.838 53.4507 349.065 53.062C349.292 52.666 349.597 52.3617 349.978 52.149C350.359 51.9363 350.777 51.83 351.232 51.83C351.657 51.83 352.028 51.9363 352.343 52.149C352.658 52.3617 352.904 52.666 353.08 53.062C353.263 53.4507 353.355 53.92 353.355 54.47C353.355 55.0127 353.263 55.482 353.08 55.878C352.904 56.274 352.658 56.5783 352.343 56.791C352.028 57.0037 351.657 57.11 351.232 57.11C350.777 57.11 350.359 57.0037 349.978 56.791C349.597 56.5783 349.292 56.274 349.065 55.878C348.838 55.482 348.724 55.0127 348.724 54.47ZM349.615 54.47C349.615 54.8587 349.692 55.1887 349.846 55.46C350.007 55.7313 350.22 55.9367 350.484 56.076C350.748 56.2153 351.034 56.285 351.342 56.285C351.599 56.285 351.852 56.2153 352.101 56.076C352.35 55.9367 352.556 55.7313 352.717 55.46C352.878 55.1887 352.959 54.8587 352.959 54.47C352.959 54.1767 352.911 53.92 352.816 53.7C352.721 53.4727 352.592 53.282 352.431 53.128C352.277 52.974 352.105 52.8567 351.914 52.776C351.723 52.6953 351.533 52.655 351.342 52.655C351.034 52.655 350.748 52.7247 350.484 52.864C350.22 53.0033 350.007 53.2087 349.846 53.48C349.692 53.7513 349.615 54.0813 349.615 54.47ZM358.13 57L361.771 53.117C361.94 52.9337 362.083 52.754 362.2 52.578C362.325 52.3947 362.416 52.2113 362.475 52.028C362.541 51.8373 362.574 51.6393 362.574 51.434C362.574 51.2653 362.541 51.1003 362.475 50.939C362.409 50.7777 362.31 50.631 362.178 50.499C362.053 50.367 361.899 50.2607 361.716 50.18C361.533 50.0993 361.324 50.059 361.089 50.059C360.759 50.059 360.473 50.136 360.231 50.29C359.996 50.4367 359.817 50.653 359.692 50.939C359.567 51.2177 359.505 51.5513 359.505 51.94H358.57C358.57 51.39 358.669 50.9097 358.867 50.499C359.065 50.081 359.351 49.7583 359.725 49.531C360.106 49.2963 360.561 49.179 361.089 49.179C361.514 49.179 361.881 49.2523 362.189 49.399C362.497 49.5383 362.75 49.7217 362.948 49.949C363.146 50.169 363.293 50.4073 363.388 50.664C363.483 50.9207 363.531 51.1663 363.531 51.401C363.531 51.797 363.436 52.1893 363.245 52.578C363.054 52.9667 362.809 53.315 362.508 53.623L360.055 56.12H363.564V57H358.13ZM365.548 53.15C365.548 53.5973 365.592 54.0117 365.68 54.393C365.768 54.767 365.896 55.0933 366.065 55.372C366.234 55.6433 366.435 55.856 366.67 56.01C366.912 56.1567 367.18 56.23 367.473 56.23C367.774 56.23 368.041 56.1567 368.276 56.01C368.511 55.856 368.712 55.6433 368.881 55.372C369.05 55.0933 369.178 54.767 369.266 54.393C369.354 54.0117 369.398 53.5973 369.398 53.15C369.398 52.7027 369.354 52.292 369.266 51.918C369.178 51.5367 369.05 51.2103 368.881 50.939C368.712 50.6603 368.511 50.4477 368.276 50.301C368.041 50.147 367.774 50.07 367.473 50.07C367.18 50.07 366.912 50.147 366.67 50.301C366.435 50.4477 366.234 50.6603 366.065 50.939C365.896 51.2103 365.768 51.5367 365.68 51.918C365.592 52.292 365.548 52.7027 365.548 53.15ZM364.613 53.15C364.613 52.38 364.734 51.698 364.976 51.104C365.218 50.51 365.552 50.0443 365.977 49.707C366.41 49.3623 366.908 49.19 367.473 49.19C368.038 49.19 368.533 49.3623 368.958 49.707C369.391 50.0443 369.728 50.51 369.97 51.104C370.212 51.698 370.333 52.38 370.333 53.15C370.333 53.92 370.212 54.602 369.97 55.196C369.728 55.79 369.391 56.2593 368.958 56.604C368.533 56.9413 368.038 57.11 367.473 57.11C366.908 57.11 366.41 56.9413 365.977 56.604C365.552 56.2593 365.218 55.79 364.976 55.196C364.734 54.602 364.613 53.92 364.613 53.15ZM370.989 57L374.63 53.117C374.798 52.9337 374.941 52.754 375.059 52.578C375.183 52.3947 375.275 52.2113 375.334 52.028C375.4 51.8373 375.433 51.6393 375.433 51.434C375.433 51.2653 375.4 51.1003 375.334 50.939C375.268 50.7777 375.169 50.631 375.037 50.499C374.912 50.367 374.758 50.2607 374.575 50.18C374.391 50.0993 374.182 50.059 373.948 50.059C373.618 50.059 373.332 50.136 373.09 50.29C372.855 50.4367 372.675 50.653 372.551 50.939C372.426 51.2177 372.364 51.5513 372.364 51.94H371.429C371.429 51.39 371.528 50.9097 371.726 50.499C371.924 50.081 372.21 49.7583 372.584 49.531C372.965 49.2963 373.42 49.179 373.948 49.179C374.373 49.179 374.74 49.2523 375.048 49.399C375.356 49.5383 375.609 49.7217 375.807 49.949C376.005 50.169 376.151 50.4073 376.247 50.664C376.342 50.9207 376.39 51.1663 376.39 51.401C376.39 51.797 376.294 52.1893 376.104 52.578C375.913 52.9667 375.667 53.315 375.367 53.623L372.914 56.12H376.423V57H370.989ZM382.795 54.47C382.795 54.91 382.726 55.295 382.586 55.625C382.447 55.955 382.253 56.23 382.003 56.45C381.754 56.67 381.468 56.835 381.145 56.945C380.823 57.055 380.474 57.11 380.1 57.11C379.631 57.11 379.22 57.0367 378.868 56.89C378.524 56.7433 378.227 56.549 377.977 56.307C377.735 56.0577 377.53 55.7863 377.361 55.493L378.153 54.954C378.271 55.174 378.425 55.383 378.615 55.581C378.813 55.7717 379.041 55.9293 379.297 56.054C379.554 56.1713 379.822 56.23 380.1 56.23C380.467 56.23 380.779 56.1567 381.035 56.01C381.292 55.8633 381.486 55.658 381.618 55.394C381.758 55.13 381.827 54.822 381.827 54.47C381.827 54.118 381.75 53.81 381.596 53.546C381.45 53.282 381.244 53.0767 380.98 52.93C380.724 52.7833 380.43 52.71 380.1 52.71C379.858 52.71 379.635 52.732 379.429 52.776C379.231 52.8127 379.03 52.8823 378.824 52.985C378.626 53.0803 378.395 53.2197 378.131 53.403L379.143 49.3H382.773V50.125H379.869L379.352 52.16C379.536 52.0647 379.723 51.995 379.913 51.951C380.111 51.8997 380.306 51.874 380.496 51.874C380.936 51.874 381.329 51.984 381.673 52.204C382.025 52.424 382.3 52.7283 382.498 53.117C382.696 53.5057 382.795 53.9567 382.795 54.47ZM386.593 54.8V53.975H388.793V54.8H386.593ZM392.366 55.46L396.634 49.3H397.019V57H396.084V55.064V54.943V51.379L393.906 54.635H396.469H396.656H398.229V55.46H392.366ZM402.736 49.3H403.671V57H402.736V49.3ZM403.253 50.18V49.3H404.826C405.325 49.3 405.769 49.3953 406.157 49.586C406.553 49.7693 406.865 50.0333 407.092 50.378C407.327 50.7227 407.444 51.1333 407.444 51.61C407.444 52.0793 407.327 52.49 407.092 52.842C406.865 53.1867 406.553 53.4543 406.157 53.645C405.769 53.8283 405.325 53.92 404.826 53.92H403.253V53.04H404.826C405.325 53.04 405.728 52.919 406.036 52.677C406.352 52.435 406.509 52.0793 406.509 51.61C406.509 51.1333 406.352 50.7777 406.036 50.543C405.728 50.301 405.325 50.18 404.826 50.18H403.253ZM409.83 51.797L409.258 57H408.323L409.258 48.915L412.338 54.492L415.418 48.915L416.353 57H415.418L414.846 51.797L412.338 56.285L409.83 51.797Z" fill="white"/>
</svg>
