<svg width="224" height="40" viewBox="0 0 224 40" fill="none" xmlns="http://www.w3.org/2000/svg">
<path d="M65.4774 8.6H70.8854V31H65.4774V8.6ZM68.8694 13.048V8.6H73.2534C75.152 8.6 76.7414 8.89867 78.0214 9.496C79.3227 10.072 80.304 10.904 80.9654 11.992C81.6267 13.08 81.9574 14.392 81.9574 15.928C81.9574 17.4213 81.6267 18.7227 80.9654 19.832C80.304 20.92 79.3227 21.7627 78.0214 22.36C76.7414 22.936 75.152 23.224 73.2534 23.224H68.8694V18.776H73.2534C74.3414 18.776 75.1947 18.5307 75.8134 18.04C76.432 17.5493 76.7414 16.8453 76.7414 15.928C76.7414 14.9893 76.432 14.2747 75.8134 13.784C75.1947 13.2933 74.3414 13.048 73.2534 13.048H68.8694ZM83.1021 23.64C83.1021 22.0827 83.4648 20.728 84.1901 19.576C84.9155 18.424 85.9181 17.528 87.1981 16.888C88.4781 16.248 89.9181 15.928 91.5181 15.928C93.1181 15.928 94.5475 16.248 95.8061 16.888C97.0861 17.528 98.0888 18.424 98.8141 19.576C99.5608 20.728 99.9341 22.0827 99.9341 23.64C99.9341 25.176 99.5608 26.52 98.8141 27.672C98.0888 28.824 97.0861 29.72 95.8061 30.36C94.5475 31 93.1181 31.32 91.5181 31.32C89.9181 31.32 88.4781 31 87.1981 30.36C85.9181 29.72 84.9155 28.824 84.1901 27.672C83.4648 26.52 83.1021 25.176 83.1021 23.64ZM88.0621 23.64C88.0621 24.408 88.2221 25.0693 88.5421 25.624C88.8621 26.1573 89.2781 26.5733 89.7901 26.872C90.3021 27.1707 90.8781 27.32 91.5181 27.32C92.1368 27.32 92.7021 27.1707 93.2141 26.872C93.7475 26.5733 94.1635 26.1573 94.4621 25.624C94.7821 25.0693 94.9421 24.408 94.9421 23.64C94.9421 22.872 94.7821 22.2107 94.4621 21.656C94.1635 21.1013 93.7475 20.6747 93.2141 20.376C92.7021 20.0773 92.1368 19.928 91.5181 19.928C90.8781 19.928 90.3021 20.0773 89.7901 20.376C89.2781 20.6747 88.8621 21.1013 88.5421 21.656C88.2221 22.2107 88.0621 22.872 88.0621 23.64ZM103.641 25.656C104.388 26.2747 105.06 26.7653 105.657 27.128C106.276 27.4693 106.82 27.7147 107.289 27.864C107.758 27.992 108.164 28.056 108.505 28.056C108.996 28.056 109.358 27.9493 109.593 27.736C109.828 27.5227 109.945 27.2453 109.945 26.904C109.945 26.584 109.849 26.3173 109.657 26.104C109.465 25.8693 109.134 25.6453 108.665 25.432C108.217 25.2187 107.598 24.9947 106.809 24.76C106.105 24.504 105.433 24.2053 104.793 23.864C104.174 23.5013 103.662 23.0213 103.257 22.424C102.852 21.8267 102.649 21.0587 102.649 20.12C102.649 19.224 102.884 18.4667 103.353 17.848C103.844 17.2293 104.494 16.76 105.305 16.44C106.137 16.12 107.086 15.96 108.153 15.96C109.006 15.96 109.796 16.056 110.521 16.248C111.268 16.44 111.961 16.696 112.601 17.016C113.262 17.336 113.881 17.7093 114.457 18.136L112.729 21.272C112.11 20.696 111.406 20.2267 110.617 19.864C109.828 19.48 109.102 19.288 108.441 19.288C107.993 19.288 107.652 19.3733 107.417 19.544C107.204 19.7147 107.097 19.9387 107.097 20.216C107.097 20.536 107.225 20.8027 107.481 21.016C107.758 21.2293 108.142 21.432 108.633 21.624C109.145 21.7947 109.764 22.0187 110.489 22.296C111.257 22.5733 111.961 22.8933 112.601 23.256C113.262 23.6187 113.785 24.0773 114.169 24.632C114.574 25.1867 114.777 25.9227 114.777 26.84C114.777 28.4187 114.286 29.6133 113.305 30.424C112.345 31.2133 110.99 31.608 109.241 31.608C108.174 31.608 107.182 31.48 106.265 31.224C105.369 30.9893 104.537 30.6693 103.769 30.264C103.001 29.8373 102.286 29.368 101.625 28.856L103.641 25.656ZM115.707 16.28H125.563V20.28H115.707V16.28ZM118.299 11.16H122.939V31H118.299V11.16ZM127.078 32.056H131.75C131.814 32.6533 131.985 33.1547 132.262 33.56C132.561 33.9653 132.956 34.264 133.446 34.456C133.937 34.6693 134.492 34.776 135.11 34.776C135.793 34.776 136.412 34.616 136.966 34.296C137.521 33.9973 137.958 33.5387 138.278 32.92C138.62 32.3227 138.79 31.576 138.79 30.68V16.28H143.43V30.68C143.43 32.5573 143.057 34.0827 142.31 35.256C141.585 36.4293 140.614 37.2827 139.398 37.816C138.182 38.3707 136.817 38.648 135.302 38.648C133.489 38.648 131.985 38.3707 130.79 37.816C129.617 37.2613 128.732 36.4827 128.134 35.48C127.537 34.4987 127.185 33.3573 127.078 32.056ZM126.758 23.448C126.758 21.784 127.089 20.3973 127.75 19.288C128.433 18.1787 129.308 17.3467 130.374 16.792C131.441 16.2373 132.572 15.96 133.766 15.96C135.004 15.96 136.092 16.2587 137.03 16.856C137.99 17.432 138.748 18.2747 139.302 19.384C139.857 20.4933 140.134 21.848 140.134 23.448C140.134 25.0267 139.857 26.3813 139.302 27.512C138.748 28.6213 137.99 29.4747 137.03 30.072C136.092 30.648 135.004 30.936 133.766 30.936C132.572 30.936 131.441 30.6587 130.374 30.104C129.308 29.528 128.433 28.6853 127.75 27.576C127.089 26.4667 126.758 25.0907 126.758 23.448ZM131.846 23.448C131.846 24.1947 132.006 24.8453 132.326 25.4C132.646 25.9333 133.073 26.3387 133.606 26.616C134.14 26.8933 134.726 27.032 135.366 27.032C135.921 27.032 136.454 26.904 136.966 26.648C137.5 26.3707 137.937 25.9653 138.278 25.432C138.62 24.8987 138.79 24.2373 138.79 23.448C138.79 22.8507 138.684 22.328 138.47 21.88C138.278 21.432 138.012 21.0587 137.67 20.76C137.35 20.4613 136.988 20.2373 136.582 20.088C136.177 19.9387 135.772 19.864 135.366 19.864C134.726 19.864 134.14 20.0027 133.606 20.28C133.073 20.5573 132.646 20.9627 132.326 21.496C132.006 22.0293 131.846 22.68 131.846 23.448ZM151.922 16.28V31H147.154V16.28H151.922ZM156.178 21.272C155.922 21.016 155.644 20.8133 155.346 20.664C155.068 20.5147 154.716 20.44 154.29 20.44C153.82 20.44 153.404 20.568 153.042 20.824C152.679 21.08 152.402 21.4533 152.21 21.944C152.018 22.4347 151.922 23.032 151.922 23.736L150.77 22.04C150.77 20.8667 150.994 19.8213 151.442 18.904C151.911 17.9867 152.519 17.2613 153.266 16.728C154.012 16.1947 154.791 15.928 155.602 15.928C156.135 15.928 156.647 16.0347 157.138 16.248C157.628 16.4613 158.002 16.76 158.258 17.144L156.178 21.272ZM167.329 31.32C165.622 31.32 164.14 31.0107 162.881 30.392C161.644 29.752 160.684 28.856 160.001 27.704C159.318 26.552 158.977 25.1973 158.977 23.64C158.977 22.0613 159.308 20.696 159.969 19.544C160.63 18.392 161.58 17.5067 162.817 16.888C164.076 16.2693 165.558 15.96 167.265 15.96C168.972 15.96 170.412 16.2587 171.585 16.856C172.758 17.432 173.654 18.2747 174.273 19.384C174.892 20.4933 175.201 21.8373 175.201 23.416C175.201 23.6507 175.201 23.8853 175.201 24.12C175.201 24.3333 175.18 24.5147 175.137 24.664H161.697V21.976H170.785L169.633 23.448C169.74 23.2987 169.825 23.1173 169.889 22.904C169.974 22.6693 170.017 22.4773 170.017 22.328C170.017 21.688 169.9 21.1333 169.665 20.664C169.43 20.1947 169.1 19.832 168.673 19.576C168.246 19.32 167.745 19.192 167.169 19.192C166.444 19.192 165.836 19.352 165.345 19.672C164.854 19.992 164.481 20.4827 164.225 21.144C163.99 21.784 163.862 22.5947 163.841 23.576C163.841 24.472 163.969 25.24 164.225 25.88C164.481 26.52 164.865 27.0107 165.377 27.352C165.889 27.672 166.518 27.832 167.265 27.832C168.118 27.832 168.844 27.672 169.441 27.352C170.06 27.032 170.55 26.552 170.913 25.912L175.233 26.968C174.465 28.4187 173.42 29.5067 172.097 30.232C170.796 30.9573 169.206 31.32 167.329 31.32ZM178.985 25.656C179.732 26.2747 180.404 26.7653 181.001 27.128C181.62 27.4693 182.164 27.7147 182.633 27.864C183.102 27.992 183.508 28.056 183.849 28.056C184.34 28.056 184.702 27.9493 184.937 27.736C185.172 27.5227 185.289 27.2453 185.289 26.904C185.289 26.584 185.193 26.3173 185.001 26.104C184.809 25.8693 184.478 25.6453 184.009 25.432C183.561 25.2187 182.942 24.9947 182.153 24.76C181.449 24.504 180.777 24.2053 180.137 23.864C179.518 23.5013 179.006 23.0213 178.601 22.424C178.196 21.8267 177.993 21.0587 177.993 20.12C177.993 19.224 178.228 18.4667 178.697 17.848C179.188 17.2293 179.838 16.76 180.649 16.44C181.481 16.12 182.43 15.96 183.497 15.96C184.35 15.96 185.14 16.056 185.865 16.248C186.612 16.44 187.305 16.696 187.945 17.016C188.606 17.336 189.225 17.7093 189.801 18.136L188.073 21.272C187.454 20.696 186.75 20.2267 185.961 19.864C185.172 19.48 184.446 19.288 183.785 19.288C183.337 19.288 182.996 19.3733 182.761 19.544C182.548 19.7147 182.441 19.9387 182.441 20.216C182.441 20.536 182.569 20.8027 182.825 21.016C183.102 21.2293 183.486 21.432 183.977 21.624C184.489 21.7947 185.108 22.0187 185.833 22.296C186.601 22.5733 187.305 22.8933 187.945 23.256C188.606 23.6187 189.129 24.0773 189.513 24.632C189.918 25.1867 190.121 25.9227 190.121 26.84C190.121 28.4187 189.63 29.6133 188.649 30.424C187.689 31.2133 186.334 31.608 184.585 31.608C183.518 31.608 182.526 31.48 181.609 31.224C180.713 30.9893 179.881 30.6693 179.113 30.264C178.345 29.8373 177.63 29.368 176.969 28.856L178.985 25.656ZM197.835 25.24C197.835 26.0933 197.995 26.7653 198.315 27.256C198.635 27.7253 199.189 27.96 199.979 27.96C200.512 27.96 200.96 27.8533 201.323 27.64C201.707 27.4267 202.005 27.1173 202.219 26.712C202.432 26.3067 202.539 25.816 202.539 25.24V16.28H207.371V31H202.539V28.792C202.091 29.5813 201.504 30.2107 200.779 30.68C200.053 31.128 199.147 31.352 198.059 31.352C196.224 31.352 194.88 30.8613 194.027 29.88C193.195 28.8773 192.779 27.5013 192.779 25.752V16.28H197.835V25.24ZM211.985 25.656C212.732 26.2747 213.404 26.7653 214.001 27.128C214.62 27.4693 215.164 27.7147 215.633 27.864C216.102 27.992 216.508 28.056 216.849 28.056C217.34 28.056 217.702 27.9493 217.937 27.736C218.172 27.5227 218.289 27.2453 218.289 26.904C218.289 26.584 218.193 26.3173 218.001 26.104C217.809 25.8693 217.478 25.6453 217.009 25.432C216.561 25.2187 215.942 24.9947 215.153 24.76C214.449 24.504 213.777 24.2053 213.137 23.864C212.518 23.5013 212.006 23.0213 211.601 22.424C211.196 21.8267 210.993 21.0587 210.993 20.12C210.993 19.224 211.228 18.4667 211.697 17.848C212.188 17.2293 212.838 16.76 213.649 16.44C214.481 16.12 215.43 15.96 216.497 15.96C217.35 15.96 218.14 16.056 218.865 16.248C219.612 16.44 220.305 16.696 220.945 17.016C221.606 17.336 222.225 17.7093 222.801 18.136L221.073 21.272C220.454 20.696 219.75 20.2267 218.961 19.864C218.172 19.48 217.446 19.288 216.785 19.288C216.337 19.288 215.996 19.3733 215.761 19.544C215.548 19.7147 215.441 19.9387 215.441 20.216C215.441 20.536 215.569 20.8027 215.825 21.016C216.102 21.2293 216.486 21.432 216.977 21.624C217.489 21.7947 218.108 22.0187 218.833 22.296C219.601 22.5733 220.305 22.8933 220.945 23.256C221.606 23.6187 222.129 24.0773 222.513 24.632C222.918 25.1867 223.121 25.9227 223.121 26.84C223.121 28.4187 222.63 29.6133 221.649 30.424C220.689 31.2133 219.334 31.608 217.585 31.608C216.518 31.608 215.526 31.48 214.609 31.224C213.713 30.9893 212.881 30.6693 212.113 30.264C211.345 29.8373 210.63 29.368 209.969 28.856L211.985 25.656Z" fill="black"/>
<path d="M26.4404 34.9821C25.3183 35.0292 24.0351 34.3656 23.2956 33.3391C23.0329 32.9746 22.4817 33.0004 22.2448 33.3816C21.8196 34.0664 21.44 34.648 21.2365 34.9943C20.7247 35.8689 20.8022 36.0269 21.2137 36.7056C21.9836 37.9751 24.3601 39.9416 27.7038 39.9902C32.8866 40.0646 37.2644 37.3009 38.9196 30.6179C43.1927 30.8123 43.955 29.0736 43.9702 27.4427C43.9854 25.833 43.3051 25.0404 41.3553 24.4922C40.7206 24.313 39.9765 24.1581 39.1747 23.8332C38.9454 21.8849 38.376 20.0353 37.4937 18.2936C41.7501 1.20419 23.8164 -4.04836 16.9269 3.42123C15.9687 2.19578 13.5513 0.00608131 9.44518 7.23772e-06C4.81218 -0.00606684 0 3.81149 0 9.58793C0 11.9917 1.43804 15.5861 2.40078 18.6626C4.40067 25.0525 5.68989 26.8687 8.49611 27.3804C10.742 27.7904 12.5581 26.7593 13.9157 25.0404C15.8787 25.2299 14.5702 26.9746 23.7026 26.4921C25.6508 26.3281 27.3318 27.016 28.5998 28.4525C30.466 30.5678 29.927 34.8348 26.4404 34.9806V34.9821ZM25.915 16.9846C24.9447 16.889 24.1596 16.1039 24.064 15.1336C23.9334 13.8216 25.0267 12.7297 26.3387 12.8588C27.309 12.9545 28.0941 13.7396 28.1898 14.7099C28.3188 16.0204 27.227 17.1137 25.915 16.9846ZM30.1137 24.884C29.1328 23.9015 28.9976 22.6335 29.766 21.809C30.6376 20.8736 31.8767 21.3033 32.5206 22.0049C34.5053 24.1672 36.7937 25.5627 41.3052 26.6667C42.2452 26.8975 42.1693 28.2581 41.208 28.375C39.1914 28.621 35.8932 28.1579 33.6671 27.2149C32.3186 26.6439 31.034 25.8042 30.1137 24.8824V24.884Z" fill="#0D6EFD"/>
<path d="M24.6775 26.48C24.6775 26.48 24.6669 26.48 24.6593 26.48C26.2476 26.5695 27.5369 27.2498 28.5998 28.4525C30.4661 30.5678 29.927 34.8348 26.4405 34.9806C25.3183 35.0277 24.0352 34.3641 23.2956 33.3376C25.7177 37.9159 32.0362 37.0412 32.715 32.8289C33.2678 29.4001 29.271 25.4868 24.6775 26.4769V26.48ZM22.5227 24.5727C20.8842 24.9797 18.9906 25.0708 17.422 24.4603C11.2644 22.0626 10.6418 13.0471 15.0395 6.88195C14.3531 5.92681 12.3168 4.2868 9.72919 4.22606C5.55782 4.12888 2.58457 7.68829 4.09549 12.622C4.57838 7.56529 9.54849 6.66177 11.8992 9.49532C8.86668 15.6089 9.72616 22.2372 13.9127 25.0419C15.8788 26.1023 17.1873 26.4769 18.0596 26.5384C20.4486 26.707 22.1613 25.543 22.5212 24.5727H22.5227Z" fill="#1E56E2"/>
</svg>
